<?xml version="1.0" encoding="UTF-8"?><svg id="Layer_1" xmlns="http://www.w3.org/2000/svg" viewBox="0 0 24 24"><path d="M12,13.4l2.9,2.9c.18.18.42.28.7.28s.52-.09.7-.28.28-.42.28-.7-.09-.52-.28-.7l-2.9-2.9,2.9-2.9c.18-.18.28-.42.28-.7s-.09-.52-.28-.7c-.18-.18-.42-.27-.7-.27s-.52.09-.7.27l-2.9,2.9-2.9-2.9c-.18-.18-.42-.27-.7-.27s-.52.09-.7.27c-.18.18-.27.42-.27.7s.09.52.27.7l2.9,2.9-2.9,2.9c-.18.18-.27.42-.27.7s.09.52.27.7c.18.18.42.28.7.28s.52-.09.7-.28l2.9-2.9ZM12,22c-1.38,0-2.68-.26-3.9-.79-1.22-.52-2.28-1.24-3.18-2.14-.9-.9-1.61-1.96-2.14-3.18-.52-1.22-.79-2.52-.79-3.9s.26-2.68.79-3.9c.53-1.22,1.24-2.28,2.14-3.18.9-.9,1.96-1.61,3.18-2.14,1.22-.52,2.52-.79,3.9-.79s2.68.26,3.9.79c1.22.53,2.27,1.24,3.18,2.14.9.9,1.61,1.96,2.14,3.18.52,1.22.79,2.52.79,3.9s-.26,2.68-.79,3.9-1.24,2.27-2.14,3.18c-.9.9-1.96,1.61-3.18,2.14s-2.52.79-3.9.79Z"/></svg>