<?xml version="1.0" encoding="UTF-8"?><svg id="Layer_1" xmlns="http://www.w3.org/2000/svg" viewBox="0 0 24 24"><path d="M12.72,12.2l1.77-1.07,1.78,1.07c.1.07.2.07.29,0,.09-.07.12-.16.09-.27l-.48-2.03,1.55-1.35c.08-.08.11-.17.09-.26-.03-.09-.1-.15-.21-.16l-2.05-.18-.82-1.9c-.03-.1-.11-.15-.23-.15s-.19.05-.22.15l-.83,1.9-2.05.18c-.12.02-.19.07-.21.16-.02.09,0,.18.09.26l1.55,1.35-.47,2.03c-.03.12,0,.21.09.27.09.07.19.07.29,0ZM9,17c-.55,0-1.02-.2-1.41-.59-.39-.39-.59-.86-.59-1.41V4c0-.55.2-1.02.59-1.41.39-.39.86-.59,1.41-.59h11c.55,0,1.02.2,1.41.59.39.39.59.86.59,1.41v11c0,.55-.2,1.02-.59,1.41s-.86.59-1.41.59h-11ZM9,15h11V4h-11v11ZM5.7,21.88c-.55.07-1.05-.07-1.49-.4-.44-.33-.7-.77-.76-1.33l-1.32-10.92c-.07-.55.07-1.04.42-1.48.35-.43.8-.69,1.35-.78h.05c.28-.05.54.03.76.22.22.2.34.45.34.75,0,.25-.09.47-.26.65-.18.18-.39.3-.64.35h-.03l1.35,10.95,11.85-1.45c.28-.03.53.03.75.2s.34.39.38.68c.03.28-.03.53-.2.74-.17.21-.39.33-.68.36l-11.88,1.45Z"/></svg>