<?xml version="1.0" encoding="UTF-8"?><svg id="Layer_1" xmlns="http://www.w3.org/2000/svg" viewBox="0 0 24 24"><path d="M12.43,7.27c.42-.17.58-.74.36-1.26-.22-.52-.73-.8-1.15-.63-.42.17-.58.74-.36,1.26.22.52.73.8,1.15.63Z"/><path d="M14,16.5h2.84c.02.05.05.1.1.15l1.41,1.41c.1.1.23.15.35.15s.26-.05.35-.15c.2-.2.2-.51,0-.71l-.85-.85h.79c.28,0,.5-.22.5-.5s-.22-.5-.5-.5h-5c-.28,0-.5.22-.5.5s.22.5.5.5Z"/><path d="M7.1,16.74l-1.64-1.15c-.23-.16-.54-.1-.7.12-.16.23-.1.54.12.7l.5.35h-.39c-.28,0-.5.22-.5.5s.22.5.5.5h1.93l-.31.18c-.24.14-.32.44-.18.68.09.16.26.25.43.25.08,0,.17-.02.25-.07l1.73-1s.03-.03.05-.04h1.1c.28,0,.5-.22.5-.5s-.22-.5-.5-.5h-2.88s-.01-.01-.02-.02Z"/><path d="M15,19.19h-1.44s.74-.87.74-.87c.18-.21.15-.53-.06-.7-.21-.18-.53-.15-.7.06l-1.28,1.53h-2.25c-.28.01-.5.24-.5.51,0,.27.23.5.5.5h0l5-.02c.28,0,.5-.23.5-.5s-.23-.5-.5-.5Z"/><path d="M12.5,16.5c.28,0,.5-.22.5-.5s-.22-.5-.5-.5-.5.22-.5.5.22.5.5.5Z"/><circle cx="8.07" cy="19.72" r=".5"/><circle cx="17.62" cy="19.72" r=".5"/><path d="M23.07,15.88c-.19-.2-.51-.2-.71,0l-.37.36v-1.23c0-.83-.5-1.53-1.22-1.84l.48-1.31c.09-.26-.04-.55-.3-.64-.26-.09-.55.04-.64.3l-.54,1.5h-.86c-.2-1.4-.82-2.67-1.73-3.68.08-.15.17-.29.23-.45.29-.73.41-1.49.38-2.25l1.53-2.37-2.48-.54c-.62-.92-1.5-1.64-2.55-2.05-1.38-.55-2.89-.52-4.25.07-2.8,1.21-4.1,4.47-2.9,7.28-.84.82-1.48,1.85-1.83,3l-.47-.73c-.15-.23-.46-.3-.69-.15-.23.15-.3.46-.15.69l.77,1.19h-.23l-1.45-1.45c-.2-.2-.51-.2-.71,0s-.2.51,0,.71l.88.88c-.74.29-1.26,1.01-1.26,1.86v2c0,.51.07,1,.19,1.47h-.28c-.28,0-.5.22-.5.5s.22.5.5.5h.63c.1.21.21.42.33.62l-.81.56c-.23.16-.28.47-.13.7.1.14.25.22.41.22.1,0,.2-.03.28-.09l.83-.57c1.1,1.28,2.73,2.1,4.55,2.1h8c3.09,0,5.63-2.33,5.96-5.33l1.1-1.08c.2-.19.2-.51,0-.71ZM16.89,13h-.71l.31-.85c.03-.09.03-.18.01-.26.17.35.3.72.38,1.11ZM10.83,3.55c.46-.2.94-.29,1.41-.29,1.38,0,2.69.8,3.27,2.14.38.87.39,1.84.04,2.72s-1.02,1.58-1.9,1.96c-1.8.78-3.9-.05-4.68-1.85-.78-1.8.05-3.9,1.85-4.68ZM8.28,10.7c.54.55,1.19,1,1.93,1.29.66.26,1.35.39,2.05.39.75,0,1.5-.15,2.21-.46.55-.24,1.04-.58,1.48-.97.18.23.33.47.47.73-.06-.07-.12-.14-.22-.17-.26-.09-.55.04-.64.3l-.43,1.19H7.11c.18-.87.59-1.66,1.17-2.3ZM20,17c0,2.21-1.79,4-4,4h-8c-1.28,0-2.41-.62-3.15-1.56.2-.06.35-.25.35-.47,0-.28-.22-.5-.5-.5h-.41c-.18-.46-.29-.95-.29-1.47v-2h1.12l.16.16c.1.1.23.15.35.15s.26-.05.35-.15c.05-.05.08-.1.1-.16h13.91v2Z"/></svg>