<?xml version="1.0" encoding="UTF-8"?><svg id="Layer_1" xmlns="http://www.w3.org/2000/svg" viewBox="0 0 24 24"><path d="M23.25,11.8l-2.59-1.79c-.63-2.38-2.8-4.14-5.37-4.14-1.86,0-3.5.92-4.51,2.32l-4.97-4.17c-.7.83-.6,2.14.13,3.32L1.69,3.78l-.56.67c-1.22,1.46-.78,3.81.99,5.52-.26.97-.2,1.97.14,2.88-.53.33-.84.89-.84,1.52v1.86c0,.65.34,1.24.9,1.56.28.16.59.24.9.24s.62-.08.9-.24l.61-.35c.04.08.08.17.13.25l-.81.81c-.39.39-.39,1.02,0,1.41.2.2.45.29.71.29s.51-.1.71-.29l.77-.77c.1.07.21.12.32.18l-.84.84c-.39.39-.39,1.02,0,1.41.2.2.45.29.71.29s.51-.1.71-.29l1.64-1.64s.05,0,.07,0c1.19,0,2.38-.45,3.29-1.36.57-.57.94-1.26,1.14-1.98.63.25,1.31.38,2.02.38,2.19,0,4.09-1.28,4.99-3.13l2.96-2.05ZM9.43,12.56c-.1.21-.23.4-.38.58-1.07,1.28-2.99,1.45-4.27.37-1.01-.85-1.35-2.25-.83-3.48l.25-.61-.6-.47c-.87-.73-1.38-1.69-1.41-2.47l7.24,6.08ZM3.42,15.89v-1.18l.22.13s.01.01.02.02c.18.15.37.27.56.39,0,.06,0,.13,0,.19l-.79.46ZM10.71,17.17c-1.03,1.03-2.71,1.03-3.75,0-.35-.35-.56-.78-.67-1.23.14.01.29.04.43.04,1.37,0,2.72-.58,3.67-1.71.02-.03.04-.06.06-.09.27.48.61.91,1.01,1.29-.04.62-.28,1.24-.76,1.71ZM15.29,14.98c-1.96,0-3.56-1.6-3.56-3.56s1.6-3.56,3.56-3.56,3.56,1.6,3.56,3.56-1.6,3.56-3.56,3.56Z"/><path d="M15.3,9.86c-.45,0-.83.45-.83,1.02,0,.57.35,1.03.81,1.04.45,0,.83-.45.83-1.02,0-.57-.35-1.03-.81-1.04Z"/></svg>