<?xml version="1.0" encoding="UTF-8"?>
<svg id="Layer_1" data-name="Layer 1" xmlns="http://www.w3.org/2000/svg" viewBox="0 0 24 24">
  <path d="M6.92,15l-3.35,5.28c-.18.29,0,.66.35.71l1.82.27c.12.02.23.08.31.17l1.19,1.39c.22.25.63.23.81-.05l3.37-5.31-4.49-2.46Z"/>
  <path d="M17.07,15l3.35,5.28c.18.29,0,.66-.35.71l-1.82.27c-.12.02-.23.08-.31.17l-1.19,1.39c-.22.25-.63.23-.81-.05l-3.37-5.31,4.49-2.46Z"/>
  <path d="M12,2.47c.87,0,1.84-.68,2.63-.41.82.28,1.21,1.43,1.89,1.94.69.52,1.86.56,2.36,1.28.49.71.17,1.88.44,2.73.26.82,1.18,1.57,1.18,2.48,0,.91-.93,1.66-1.18,2.48-.26.85.05,2.02-.44,2.73-.5.72-1.67.76-2.36,1.28-.68.52-1.08,1.67-1.89,1.94-.79.27-1.75-.41-2.63-.41-.87,0-1.84.68-2.63.41-.82-.28-1.21-1.43-1.89-1.94-.69-.52-1.86-.56-2.36-1.28-.49-.71-.18-1.88-.44-2.73-.26-.82-1.18-1.57-1.18-2.48,0-.91.93-1.66,1.18-2.48.27-.85-.05-2.02.44-2.73.5-.72,1.67-.76,2.36-1.28.68-.52,1.08-1.67,1.89-1.94.79-.27,1.75.41,2.63.41ZM12.14,7c-.24,0-.47.12-.58.31l-.95,1.57-1.93.34c-.24.04-.43.2-.51.41-.07.21-.02.44.15.6l1.34,1.31-.24,1.78c-.03.22.07.44.27.57.2.13.45.15.67.06l1.78-.76,1.78.76c.09.04.19.06.28.06.14,0,.28-.04.39-.12.2-.13.3-.35.27-.57l-.24-1.78,1.34-1.31c.17-.16.22-.39.15-.6-.08-.21-.27-.37-.51-.41l-1.93-.34-.95-1.57c-.12-.19-.34-.31-.58-.31Z"/>
</svg>