<?xml version="1.0" encoding="UTF-8"?><svg id="Layer_1" xmlns="http://www.w3.org/2000/svg" viewBox="0 0 24 24"><path d="M14.6,12h-.6c-.28,0-.52.1-.71.29s-.29.43-.29.71.1.52.29.71.43.29.71.29h3c.28,0,.52-.1.71-.29s.29-.43.29-.71v-3c0-.28-.1-.52-.29-.71-.19-.19-.43-.29-.71-.29s-.52.1-.71.29c-.19.19-.29.43-.29.71v.55c-.53-.63-1.17-1.13-1.91-1.5-.74-.37-1.55-.55-2.44-.55-1.38,0-2.58.41-3.59,1.24-1.01.82-1.65,1.86-1.94,3.11-.07.3,0,.57.18.8.18.23.42.35.7.35s.53-.1.74-.31c.21-.21.35-.45.44-.74.23-.72.67-1.3,1.3-1.76.63-.46,1.36-.69,2.17-.69.6,0,1.16.14,1.68.41.52.27.94.64,1.28,1.09ZM12,22c-1.38,0-2.68-.26-3.9-.79-1.22-.52-2.28-1.24-3.18-2.14-.9-.9-1.61-1.96-2.14-3.18-.52-1.22-.79-2.52-.79-3.9s.26-2.68.79-3.9c.52-1.22,1.24-2.28,2.14-3.18.9-.9,1.96-1.61,3.18-2.14,1.22-.52,2.52-.79,3.9-.79s2.68.26,3.9.79c1.22.53,2.27,1.24,3.18,2.14.9.9,1.61,1.96,2.14,3.18.52,1.22.79,2.52.79,3.9s-.26,2.68-.79,3.9c-.53,1.22-1.24,2.27-2.14,3.18-.9.9-1.96,1.61-3.18,2.14s-2.52.79-3.9.79ZM12,20c2.23,0,4.12-.77,5.67-2.33,1.55-1.55,2.33-3.44,2.33-5.67s-.77-4.12-2.33-5.68c-1.55-1.55-3.44-2.32-5.67-2.32s-4.12.78-5.68,2.32c-1.55,1.55-2.32,3.44-2.32,5.68s.78,4.12,2.32,5.67c1.55,1.55,3.44,2.33,5.68,2.33Z"/></svg>