<?xml version="1.0" encoding="UTF-8"?><svg id="Layer_1" xmlns="http://www.w3.org/2000/svg" viewBox="0 0 24 24"><path d="M2,12c0-1.38.26-2.68.79-3.9.52-1.22,1.24-2.27,2.14-3.17.9-.9,1.96-1.61,3.17-2.14,1.22-.53,2.52-.79,3.9-.79.81,0,1.59.09,2.34.27-.1.25-.16.52-.16.81v1.19c-.69-.18-1.41-.28-2.18-.28-2.23,0-4.12.78-5.67,2.33-1.55,1.55-2.33,3.44-2.33,5.67s.78,4.12,2.33,5.67c1.55,1.55,3.44,2.33,5.67,2.33s4.12-.78,5.67-2.33c1.55-1.55,2.33-3.44,2.33-5.67,0-.77-.09-1.5-.28-2.18h1.42c.21-.03.4-.08.58-.16.18.75.27,1.53.27,2.34,0,1.38-.26,2.68-.79,3.9-.52,1.22-1.24,2.27-2.14,3.17-.9.9-1.96,1.61-3.17,2.14-1.22.52-2.52.79-3.9.79s-2.68-.26-3.9-.79c-1.22-.52-2.27-1.24-3.17-2.14-.9-.9-1.61-1.96-2.14-3.17-.53-1.22-.79-2.52-.79-3.9ZM15.43,3.09c0-.16.04-.31.11-.44.12.05.24.09.36.14,1.22.52,2.27,1.24,3.17,2.14.9.9,1.61,1.96,2.14,3.17.05.12.1.24.14.36-.14.07-.28.11-.44.11h-1.65c-.38-.81-.91-1.56-1.59-2.24-.68-.68-1.43-1.21-2.24-1.59v-1.64Z"/><path d="M6,12c0-1.67.58-3.08,1.75-4.25s2.58-1.75,4.25-1.75c.78,0,1.51.13,2.18.39v.22l-1.43,1.46c-.24-.04-.5-.07-.76-.07-1.1,0-2.04.39-2.83,1.17-.78.78-1.17,1.73-1.17,2.83s.39,2.04,1.17,2.83c.78.78,1.73,1.17,2.83,1.17s2.04-.39,2.83-1.17c.78-.78,1.17-1.73,1.17-2.83,0-.26-.02-.5-.06-.74l1.41-1.44h.26c.26.67.39,1.4.39,2.18,0,1.67-.58,3.08-1.75,4.25s-2.58,1.75-4.25,1.75-3.08-.58-4.25-1.75-1.75-2.58-1.75-4.25ZM15.43,7.12v-.06c.28.2.56.43.82.69.26.26.49.53.69.82h-.12l-1.37,1.4c-.17-.28-.38-.55-.63-.79-.25-.25-.51-.45-.79-.62l1.4-1.43Z"/><path d="M20.17,2.27l-9.17,9.38,2.12.7L21.58,3.7c.2-.2.3-.44.3-.71s-.1-.51-.3-.71c-.2-.18-.44-.27-.71-.27s-.5.09-.69.27Z"/><path d="M19.43,4.57l3.48.02c.26,0,.49.09.69.28.2.19.3.42.3.71,0,.26-.1.49-.3.69-.2.2-.43.3-.69.3h-4.49c-.14,0-.27-.03-.38-.08-.11-.05-.22-.13-.31-.22-.09-.09-.17-.2-.22-.31-.05-.11-.08-.24-.08-.38V1.09c0-.26.1-.49.29-.68.19-.19.43-.3.7-.31.28,0,.52.1.72.29.19.19.29.43.29.72v3.46Z"/><path d="M18.43,5.57l3.48.02c.26,0,.49.09.69.28.2.19.3.42.3.71,0,.26-.1.49-.3.69-.2.2-.43.3-.69.3h-4.49c-.14,0-.27-.03-.38-.08-.11-.05-.22-.13-.31-.22-.09-.09-.17-.2-.22-.31-.05-.11-.08-.24-.08-.38V2.09c0-.26.1-.49.29-.68.19-.19.43-.3.7-.31.28,0,.52.1.72.29.19.19.29.43.29.72v3.46Z"/><path d="M17.43,6.57l3.48.02c.26,0,.49.09.69.28.2.19.3.42.3.71,0,.26-.1.49-.3.69-.2.2-.43.3-.69.3h-4.49c-.14,0-.27-.03-.38-.08-.11-.05-.22-.13-.31-.22-.09-.09-.17-.2-.22-.31-.05-.11-.08-.24-.08-.38V3.09c0-.26.1-.49.29-.68.19-.19.43-.3.7-.31.28,0,.52.1.72.29.19.19.29.43.29.72v3.46Z"/><path d="M12,14c-.55,0-1.02-.2-1.41-.59-.39-.39-.59-.86-.59-1.41s.2-1.02.59-1.41c.39-.39.86-.59,1.41-.59s1.02.2,1.41.59c.39.39.59.86.59,1.41s-.2,1.02-.59,1.41c-.39.39-.86.59-1.41.59Z"/></svg>