<?xml version="1.0" encoding="UTF-8"?><svg id="Layer_1" xmlns="http://www.w3.org/2000/svg" viewBox="0 0 24 24"><path d="M4.81,2.01c.58,0,1.05.47,1.05,1.05v.53l8.63-.02h.07s.05.02.07.03c.04.02.08.04.11.08.03.03.06.07.08.12.02.04.03.09.03.13v2.42s5.55-.01,5.55-.01c.15,0,.29.03.43.08l.13.07.12.08c.11.09.21.2.28.33h0c.09.17.14.36.14.55,0,.19-.05.38-.15.55l-1.74,2.96,1.75,2.96c.09.16.15.34.15.52,0,.18-.03.36-.11.53-.08.17-.2.31-.35.42-.15.11-.32.18-.51.2h0s-.08,0-.13,0l-9.7.03c-.15,0-.29-.03-.42-.08-.13-.06-.26-.14-.36-.24-.1-.1-.18-.22-.24-.36-.05-.13-.08-.28-.08-.42v-3.17s-3.76,0-3.76,0v9.51c0,.58-.47,1.05-1.05,1.05-.58,0-1.05-.47-1.05-1.05V3.06c0-.58.47-1.05,1.05-1.05ZM14.85,7.83v3.1s0,.07,0,.11v.03s-.03.06-.05.09c0,0,0,.01-.01.02,0,0,0,.02-.02.02l-.02.02s0,0,0,0l-3.09,2.87,8.06-.02-1.85-3.12,1.84-3.13h-4.85ZM6.64,5.08v4.75s6.72-.02,6.72-.02v-4.75s-6.72.02-6.72.02Z"/></svg>