<?xml version="1.0" encoding="UTF-8"?><svg id="Layer_1" xmlns="http://www.w3.org/2000/svg" viewBox="0 0 24 24"><path d="M15,20c-2.23,0-4.12-.77-5.68-2.33-1.55-1.55-2.32-3.44-2.32-5.67s.78-4.1,2.32-5.66c1.55-1.56,3.44-2.34,5.68-2.34s4.1.78,5.66,2.34,2.34,3.45,2.34,5.66-.78,4.12-2.34,5.67c-1.56,1.55-3.45,2.33-5.66,2.33ZM15,18c1.67,0,3.08-.58,4.25-1.75s1.75-2.58,1.75-4.25-.58-3.08-1.75-4.25-2.58-1.75-4.25-1.75-3.08.58-4.25,1.75c-1.17,1.17-1.75,2.58-1.75,4.25s.58,3.08,1.75,4.25c1.17,1.17,2.58,1.75,4.25,1.75ZM16,11.6v-2.6c0-.28-.1-.52-.29-.71-.19-.19-.43-.29-.71-.29s-.52.1-.71.29c-.19.19-.29.43-.29.71v3.02c0,.13.03.26.09.39s.13.23.21.31l2.28,2.27c.2.2.44.3.71.3s.51-.1.71-.3.3-.44.3-.71-.1-.51-.3-.71l-2-1.97ZM3,9c-.28,0-.52-.1-.71-.29-.19-.19-.29-.43-.29-.71s.1-.52.29-.71c.19-.19.43-.29.71-.29h2c.28,0,.52.1.71.29s.29.43.29.71-.1.52-.29.71c-.19.19-.43.29-.71.29h-2ZM2,13c-.28,0-.52-.1-.71-.29-.19-.19-.29-.43-.29-.71s.1-.52.29-.71c.19-.19.43-.29.71-.29h3c.28,0,.52.1.71.29s.29.43.29.71-.1.52-.29.71-.43.29-.71.29h-3ZM3,17c-.28,0-.52-.1-.71-.29-.19-.19-.29-.43-.29-.71s.1-.52.29-.71c.19-.19.43-.29.71-.29h2c.28,0,.52.1.71.29s.29.43.29.71-.1.52-.29.71-.43.29-.71.29h-2Z"/></svg>