<svg preserveAspectRatio="none" overflow="visible" style="display: block;" width="16" height="16" viewBox="0 0 16 16" fill="none" xmlns="http://www.w3.org/2000/svg">
<g id="overview">
<mask id="mask0_0_1517" style="mask-type:alpha" maskUnits="userSpaceOnUse" x="0" y="0" width="16" height="16">
<rect id="Bounding box" width="16" height="16" fill="#D9D9D9"/>
</mask>
<g mask="url(#mask0_0_1517)">
<path id="overview_2" d="M12.3333 11.8667V10.3333C12.3333 10.2444 12.3 10.1667 12.2333 10.1C12.1667 10.0333 12.0889 10 12 10C11.9111 10 11.8333 10.0333 11.7667 10.1C11.7 10.1667 11.6667 10.2444 11.6667 10.3333V11.8667C11.6667 11.9556 11.6833 12.0389 11.7167 12.1167C11.75 12.1944 11.8 12.2667 11.8667 12.3333L12.8833 13.35C12.95 13.4167 13.0278 13.45 13.1167 13.45C13.2056 13.45 13.2833 13.4167 13.35 13.35C13.4167 13.2833 13.45 13.2056 13.45 13.1167C13.45 13.0278 13.4167 12.95 13.35 12.8833L12.3333 11.8667ZM3.33333 14C2.96667 14 2.65278 13.8694 2.39167 13.6083C2.13056 13.3472 2 13.0333 2 12.6667V3.33333C2 2.96667 2.13056 2.65278 2.39167 2.39167C2.65278 2.13056 2.96667 2 3.33333 2H12.6667C13.0333 2 13.3472 2.13056 13.6083 2.39167C13.8694 2.65278 14 2.96667 14 3.33333V6.66667C14 6.85556 13.9361 7.01389 13.8083 7.14167C13.6806 7.26944 13.5222 7.33333 13.3333 7.33333C13.1444 7.33333 12.9861 7.26944 12.8583 7.14167C12.7306 7.01389 12.6667 6.85556 12.6667 6.66667V3.33333H3.33333V12.6667H6.66667C6.85556 12.6667 7.01389 12.7306 7.14167 12.8583C7.26944 12.9861 7.33333 13.1444 7.33333 13.3333C7.33333 13.5222 7.26944 13.6806 7.14167 13.8083C7.01389 13.9361 6.85556 14 6.66667 14H3.33333ZM3.33333 12.6667V3.33333V7.38333V7.33333V12.6667ZM4.66667 10.6667C4.66667 10.8556 4.73056 11.0139 4.85833 11.1417C4.98611 11.2694 5.14444 11.3333 5.33333 11.3333H6.71667C6.90556 11.3333 7.06389 11.2694 7.19167 11.1417C7.31944 11.0139 7.38333 10.8556 7.38333 10.6667C7.38333 10.4778 7.31944 10.3194 7.19167 10.1917C7.06389 10.0639 6.90556 10 6.71667 10H5.33333C5.14444 10 4.98611 10.0639 4.85833 10.1917C4.73056 10.3194 4.66667 10.4778 4.66667 10.6667ZM4.66667 8C4.66667 8.18889 4.73056 8.34722 4.85833 8.475C4.98611 8.60278 5.14444 8.66667 5.33333 8.66667H8.66667C8.85555 8.66667 9.01389 8.60278 9.14167 8.475C9.26944 8.34722 9.33333 8.18889 9.33333 8C9.33333 7.81111 9.26944 7.65278 9.14167 7.525C9.01389 7.39722 8.85555 7.33333 8.66667 7.33333H5.33333C5.14444 7.33333 4.98611 7.39722 4.85833 7.525C4.73056 7.65278 4.66667 7.81111 4.66667 8ZM4.66667 5.33333C4.66667 5.52222 4.73056 5.68056 4.85833 5.80833C4.98611 5.93611 5.14444 6 5.33333 6H10.6667C10.8556 6 11.0139 5.93611 11.1417 5.80833C11.2694 5.68056 11.3333 5.52222 11.3333 5.33333C11.3333 5.14444 11.2694 4.98611 11.1417 4.85833C11.0139 4.73056 10.8556 4.66667 10.6667 4.66667H5.33333C5.14444 4.66667 4.98611 4.73056 4.85833 4.85833C4.73056 4.98611 4.66667 5.14444 4.66667 5.33333ZM12 15.3333C11.0778 15.3333 10.2917 15.0083 9.64167 14.3583C8.99167 13.7083 8.66667 12.9222 8.66667 12C8.66667 11.0778 8.99167 10.2917 9.64167 9.64167C10.2917 8.99167 11.0778 8.66667 12 8.66667C12.9222 8.66667 13.7083 8.99167 14.3583 9.64167C15.0083 10.2917 15.3333 11.0778 15.3333 12C15.3333 12.9222 15.0083 13.7083 14.3583 14.3583C13.7083 15.0083 12.9222 15.3333 12 15.3333Z" fill="#1C1B1F"/>
</g>
</g>
</svg>
