<?xml version="1.0" encoding="UTF-8"?><svg id="Layer_1" xmlns="http://www.w3.org/2000/svg" viewBox="0 0 24 24"><path d="M22.38,9.11l-.49-.73-3.16,2.13c-.04-.52-.14-1.02-.31-1.5l1.06-2.25-2.9-.24c-.97-.75-2.13-1.17-3.38-1.17-1.48,0-2.88.58-3.93,1.63-.9.9-1.43,2.07-1.57,3.31L2.37,5.82l-.56.67c-.65.77-.85,1.87-.54,3.01.24.91.78,1.78,1.53,2.51-.48,1.78.1,3.68,1.53,4.88.44.37.93.63,1.46.82.03.31.1.61.19.9l-.68.18c-.63.17-1.11.65-1.28,1.28-.17.63,0,1.28.47,1.74l1.31,1.31c.35.35.8.53,1.27.53.16,0,.32-.02.48-.06.63-.17,1.11-.65,1.28-1.28l.18-.69c.1.03.2.07.31.1l.28.65c.16.38.53.6.92.6.13,0,.27-.03.39-.08.46-.2.68-.7.55-1.17.07-.02.13-.04.2-.06l.15.35c.16.38.53.6.92.6.13,0,.27-.03.4-.08.51-.22.74-.81.52-1.31l-.22-.51c.35-.31.66-.65.9-1.05.28.11.57.2.87.26.31.06.62.09.92.09.94,0,1.87-.28,2.67-.82,1.55-1.05,2.32-2.87,2.04-4.69,1.93-1.52,2.62-3.81,1.56-5.39ZM10.69,8.4c.67-.67,1.57-1.04,2.52-1.04s1.84.37,2.52,1.04,1.04,1.57,1.04,2.52-.37,1.84-1.04,2.52c-1.34,1.35-3.69,1.35-5.03,0-.67-.67-1.04-1.57-1.04-2.52s.37-1.84,1.04-2.52ZM13.03,17.21c0,1.46-1.19,2.65-2.65,2.65s-2.65-1.19-2.65-2.65c0-1.06.63-1.96,1.52-2.39,0,0,.01.02.02.02.98.98,2.26,1.53,3.63,1.6.07.24.13.5.13.76ZM4.62,12.07l.25-.61-.51-.41s-.07-.05-.09-.06c-.65-.55-1.13-1.26-1.32-1.95-.04-.13-.07-.32-.08-.52l5.13,4.3c.04.12.09.23.14.35-1.04.58-1.84,1.53-2.19,2.68-.17-.09-.34-.18-.49-.31-1.01-.85-1.35-2.25-.83-3.48ZM6.97,21.47l-.83-.83.88-.24c.06.06.12.13.19.19l-.24.88ZM19.48,13.31l-.67.42.19.63c.38,1.28-.1,2.64-1.19,3.38-.67.45-1.48.62-2.28.46-.2-.04-.39-.1-.58-.18.05-.26.08-.53.08-.81,0-.35-.04-.7-.12-1.03.83-.27,1.6-.7,2.23-1.34.58-.58,1-1.26,1.27-2.01l2.7-1.82c-.1.77-.71,1.67-1.63,2.29Z"/><path d="M13.54,11.27c.32-.32.27-.9-.13-1.31-.39-.41-.98-.48-1.3-.16-.32.32-.27.9.13,1.31.39.41.98.48,1.3.16Z"/><path d="M14,4c.28,0,.52-.1.71-.29s.29-.43.29-.71v-1c0-.28-.1-.52-.29-.71-.19-.19-.43-.29-.71-.29s-.52.1-.71.29c-.19.19-.29.43-.29.71v1c0,.28.1.52.29.71s.43.29.71.29Z"/><path d="M20.71,6.3c.27,0,.5-.09.69-.28l.35-.35c.2-.2.3-.44.31-.72,0-.28-.09-.53-.29-.73-.2-.2-.44-.3-.73-.3s-.52.1-.7.3l-.38.38c-.18.2-.27.44-.26.71,0,.27.1.5.29.69.2.2.44.3.71.3Z"/><path d="M6.6,6.02c.2.18.44.27.71.26.28,0,.5-.1.69-.29.2-.2.3-.44.3-.71s-.09-.5-.27-.69l-.35-.35c-.2-.2-.44-.3-.72-.31-.28,0-.53.09-.73.29-.2.2-.3.44-.3.73s.1.52.3.7l.38.38Z"/></svg>