<?xml version="1.0" encoding="UTF-8"?><svg id="Layer_1" xmlns="http://www.w3.org/2000/svg" viewBox="0 0 24 24"><path d="M20.65,10.12c-.24-.56-.79-.92-1.4-.92h-4.26l2.61-6.07c.2-.47.15-1.01-.13-1.44s-.76-.68-1.27-.68h-7.99c-.68,0-1.29.46-1.48,1.11l-3.42,11.64c-.14.47-.05.97.24,1.36.29.39.75.62,1.24.62h3.7l-.6,5.14c-.08.65.27,1.28.87,1.56.21.1.43.14.65.14.41,0,.81-.16,1.1-.47l9.86-10.33c.42-.44.54-1.09.3-1.65ZM19.26,10.73l-9.9,10.32.8-6.81-5.43-.06,3.47-11.68,8.01.03-3.5,8.16,6.55.04Z" style="fill:#231f20;"/></svg>