<?xml version="1.0" encoding="UTF-8"?><svg id="Layer_1" xmlns="http://www.w3.org/2000/svg" viewBox="0 0 24 24"><path d="M11.05,15.37c.34-.09.66-.05.95.12.3.17.49.43.58.76.09.34.05.66-.12.95-.17.3-.43.49-.76.58-.34.09-.66.05-.95-.12-.3-.17-.49-.43-.58-.76-.09-.34-.05-.66.12-.95.17-.3.43-.49.76-.58Z"/><path d="M8.74,6.16c.89-.24,1.73-.18,2.54.16.81.34,1.32.93,1.54,1.75.14.51.13,1.02-.02,1.51-.15.49-.37.96-.64,1.42-.19.31-.37.63-.52.96-.15.33-.22.67-.19,1.02.02.25-.04.49-.16.69-.13.21-.31.34-.55.41-.23.06-.44.04-.65-.07-.21-.11-.35-.27-.41-.5-.13-.48-.1-.96.07-1.42.18-.46.41-.9.69-1.33.21-.31.39-.64.53-.97.14-.33.17-.68.07-1.03-.1-.39-.34-.67-.71-.85-.37-.18-.75-.21-1.15-.11-.29.08-.55.22-.78.42-.23.2-.4.44-.52.73-.1.27-.27.46-.49.57-.23.11-.47.13-.73.07-.21-.07-.36-.2-.46-.41-.1-.21-.12-.42-.06-.65.15-.61.46-1.12.95-1.52.49-.41,1.04-.69,1.65-.86Z"/><path d="M11.21.32c1.12-.3,2.27-.09,3.18.49l1.53-.13c.89-.08,1.74.14,2.45.58l1.96.21c2.2.23,3.79,2.2,3.56,4.4l-1.46,13.92c-.23,2.2-2.2,3.79-4.4,3.56l-3.97-.42-3.25.28-1.63.44c-2.13.57-4.33-.69-4.9-2.83L.65,7.29C.08,5.15,1.35,2.96,3.48,2.39L11.21.32ZM11.93,2.21c1-.16,1.98.46,2.25,1.46l3.62,13.52c.27,1-.27,2.03-1.22,2.39l-7.92,2.13c-1,.27-2.03-.27-2.39-1.22L2.58,6.77c-.29-1.07.35-2.16,1.42-2.45l7.93-2.11ZM15.95,2.67l.34-.02c1.01.01,1.87.79,1.96,1.83l.87,9.9-3.01-11.24c-.04-.16-.1-.32-.16-.47ZM20.25,4.31c-.03-.3-.09-.59-.17-.87l.24.04c.99.21,1.69,1.14,1.58,2.17l-.84,7.94-.81-9.28Z" style="fill-rule:evenodd;"/><path d="M11.05,15.37c.34-.09.66-.05.95.12.3.17.49.43.58.76.09.34.05.66-.12.95-.17.3-.43.49-.76.58-.34.09-.66.05-.95-.12-.3-.17-.49-.43-.58-.76-.09-.34-.05-.66.12-.95.17-.3.43-.49.76-.58ZM8.74,6.16c.89-.24,1.73-.18,2.54.16.81.34,1.32.93,1.54,1.75.14.51.13,1.02-.02,1.51-.15.49-.37.96-.64,1.42-.19.31-.37.63-.52.96-.15.33-.22.67-.19,1.02.02.25-.04.49-.16.69-.13.21-.31.34-.55.41-.23.06-.44.04-.65-.07-.21-.11-.35-.27-.41-.5-.13-.48-.1-.96.07-1.42.18-.46.41-.9.69-1.33.21-.31.39-.64.53-.97.14-.33.17-.68.07-1.03-.1-.39-.34-.67-.71-.85-.37-.18-.75-.21-1.15-.11-.29.08-.55.22-.78.42-.23.2-.4.44-.52.73-.1.27-.27.46-.49.57-.23.11-.47.13-.73.07-.21-.07-.36-.2-.46-.41-.1-.21-.12-.42-.06-.65.15-.61.46-1.12.95-1.52.49-.41,1.04-.69,1.65-.86Z" style="fill-rule:evenodd;"/></svg>