<?xml version="1.0" encoding="UTF-8"?><svg id="Layer_1" xmlns="http://www.w3.org/2000/svg" viewBox="0 0 24 24"><path d="M6.85,19l.85.85c.2.2.3.43.29.7,0,.27-.1.5-.29.7-.2.2-.44.3-.71.31s-.51-.09-.71-.29l-2.57-2.57c-.1-.1-.17-.21-.21-.33-.04-.12-.06-.24-.06-.38s.02-.26.06-.38c.04-.12.11-.23.21-.33l2.57-2.57c.2-.2.44-.3.71-.29s.51.11.71.31c.18.2.28.43.29.7,0,.27-.09.5-.29.7l-.85.85h10.15v-3c0-.28.1-.52.29-.71s.43-.29.71-.29.52.1.71.29.29.43.29.71v3c0,.55-.2,1.02-.59,1.41-.39.39-.86.59-1.41.59H6.85ZM17.15,7H7v3c0,.28-.1.52-.29.71-.19.19-.43.29-.71.29s-.52-.1-.71-.29c-.19-.19-.29-.43-.29-.71v-3c0-.55.2-1.02.59-1.41.39-.39.86-.59,1.41-.59h10.15l-.85-.85c-.2-.2-.3-.43-.29-.7,0-.27.1-.5.29-.7.2-.2.44-.3.71-.31.27,0,.51.09.71.29l2.58,2.58c.1.1.17.21.21.32.04.12.06.24.06.38s-.02.26-.06.38c-.04.12-.11.22-.21.32l-2.58,2.58c-.2.2-.44.3-.71.29-.27,0-.51-.11-.71-.31-.18-.2-.28-.43-.29-.7,0-.27.09-.5.29-.7l.85-.85Z"/></svg>