<?xml version="1.0" encoding="UTF-8"?><svg id="Layer_1" xmlns="http://www.w3.org/2000/svg" viewBox="0 0 24 24"><path d="M6.05,17.77c-.33-.18-.59-.43-.78-.74-.18-.31-.28-.65-.28-1.04v-4.8l-2.4-1.32c-.18-.1-.32-.23-.4-.38-.08-.15-.12-.32-.12-.5s.04-.35.12-.5c.08-.15.22-.27.4-.38L11.05,3.53c.15-.08.3-.15.46-.19.16-.04.32-.06.49-.06s.33.02.49.06c.16.04.31.1.46.19l9.53,5.2c.17.08.3.2.39.36.09.16.14.33.14.51v6.4c0,.28-.1.52-.29.71-.19.19-.43.29-.71.29s-.52-.1-.71-.29c-.19-.19-.29-.43-.29-.71v-5.9l-2,1.1v4.8c0,.38-.09.73-.27,1.04-.18.31-.44.55-.78.74l-5,2.7c-.15.08-.3.15-.46.19-.16.04-.32.06-.49.06s-.33-.02-.49-.06c-.16-.04-.31-.1-.46-.19l-5-2.7ZM12,12.7l6.85-3.7-6.85-3.7-6.85,3.7,6.85,3.7ZM12,18.73l5-2.7v-3.77l-4.03,2.23c-.15.08-.31.15-.47.19-.17.04-.33.06-.5.06s-.33-.02-.5-.06c-.17-.04-.32-.1-.48-.19l-4.03-2.23v3.77l5,2.7Z"/></svg>