<?xml version="1.0" encoding="UTF-8"?><svg id="Layer_1" xmlns="http://www.w3.org/2000/svg" viewBox="0 0 40 40"><path d="M3,16.26c0-1.71,1.38-3.09,3.09-3.09h27.82c1.71,0,3.09,1.38,3.09,3.09v4.68c0,1.71-1.38,3.09-3.09,3.09H6.09c-1.71,0-3.09-1.38-3.09-3.09v-4.68Z" style="fill:#0b5f68;"/><path d="M7.18,8.92c0-1.71,1.38-3.09,3.09-3.09h19.46c1.71,0,3.09,1.38,3.09,3.09v17.62c0,1.71-1.38,3.09-3.09,3.09H10.27c-1.71,0-3.09-1.38-3.09-3.09V8.92Z" style="fill:#fc0;"/><path d="M19.09,10.24c.44-.64,1.38-.64,1.82,0l1.61,2.34c.14.21.36.36.6.44l.51.15h0l2.21.65c.75.22,1.04,1.12.56,1.74l-1.73,2.25c-.16.2-.24.45-.23.7l.08,2.84c.02.78-.74,1.33-1.48,1.07l-2.67-.95c-.09-.03-.18-.05-.28-.06-.06,0-.13,0-.19,0-.09,0-.19.03-.28.06l-2.67.95c-.73.26-1.5-.3-1.48-1.07l.07-2.4v-.44c.02-.25-.06-.5-.22-.7l-1.73-2.25c-.47-.62-.18-1.52.56-1.74l2.72-.8c.24-.07.46-.23.6-.44l1.61-2.34Z" style="fill:#f39;"/><path d="M26.4,15.56l-1.73,2.25c-.16.2-.24.45-.23.7l.08,2.84c.02.78-.74,1.33-1.48,1.07l-2.68-.95c-.24-.08-.5-.08-.74,0l-2.68.95c-.73.26-1.5-.3-1.48-1.07l.06-2.4c.62.21,1.28.33,1.97.33,3.37,0,6.11-2.73,6.11-6.11h0s2.22.65,2.22.65c.75.22,1.04,1.12.56,1.74Z" style="isolation:isolate; opacity:.1;"/><path d="M37,31.34v-14l-14.69,11.36c-1.36,1.05-3.26,1.05-4.62,0L3,17.33v14c0,2.09,1.69,3.78,3.78,3.78h26.44c2.09,0,3.78-1.69,3.78-3.78Z" style="fill:#44c8d7;"/><path d="M28.41,7.75c.06-.25.42-.25.49,0l.38,1.55c.02.09.09.16.18.18l1.55.38c.25.06.25.42,0,.49l-1.55.38c-.09.02-.16.09-.18.18l-.38,1.55c-.06.25-.42.25-.49,0l-.38-1.55c-.02-.09-.09-.16-.18-.18l-1.55-.38c-.25-.06-.25-.42,0-.49l1.55-.38c.09-.02.16-.09.18-.18l.38-1.55Z" style="fill:#fff;"/><path d="M35.24,34.55l-7.07-10.4-5.82,4.54c-1.36,1.05-3.26,1.05-4.62,0l-5.92-4.54-6.5,10.65c.46.2.97.31,1.51.31h26.44c.73,0,1.41-.2,1.98-.56Z" style="fill:#1cb7c8;"/></svg>