<svg width="24" height="24" viewBox="0 0 24 24" fill="none" xmlns="http://www.w3.org/2000/svg">
<path d="M14.0449 0.714844C14.6893 0.519569 15.1616 0.430793 15.5479 0.561523C15.9597 0.701064 16.3068 1.07846 16.7158 1.63086C17.0858 2.13057 17.5254 2.80874 18.0791 3.22949H18.0801C18.6404 3.65494 19.3989 3.88682 19.9688 4.10059C20.5944 4.3353 21.043 4.55959 21.2979 4.9248C21.5522 5.28945 21.619 5.80987 21.6406 6.50781C21.6604 7.14563 21.6393 7.95967 21.8525 8.64551C22.0602 9.3129 22.541 9.95324 22.8818 10.4746C23.2544 11.0447 23.5 11.5192 23.5 12C23.5 12.4808 23.2544 12.9553 22.8818 13.5254C22.541 14.0468 22.0603 14.6871 21.8525 15.3545C21.6393 16.0403 21.6604 16.8544 21.6406 17.4922C21.619 18.1901 21.5521 18.7106 21.2979 19.0752C21.043 19.4404 20.5944 19.6647 19.9688 19.8994C19.3989 20.1132 18.6404 20.3451 18.0801 20.7705H18.0791C17.5254 21.1913 17.0858 21.8694 16.7158 22.3691C16.3068 22.9215 15.9597 23.2989 15.5479 23.4385C15.1616 23.5692 14.6893 23.4804 14.0449 23.2852C13.4612 23.1083 12.7121 22.8321 12 22.832C11.2879 22.832 10.539 23.1082 9.95508 23.2852C9.31018 23.4806 8.83752 23.5692 8.45117 23.4385C8.03936 23.2988 7.69232 22.9215 7.2832 22.3691C6.91299 21.8693 6.47286 21.1912 5.91895 20.7705C5.3586 20.3451 4.60017 20.1142 4.03027 19.9004C3.48265 19.695 3.07082 19.497 2.80566 19.2061L2.70117 19.0752C2.44688 18.7105 2.37999 18.1901 2.3584 17.4922C2.33867 16.8544 2.3598 16.0403 2.14648 15.3545C1.93883 14.6872 1.45871 14.0468 1.11816 13.5254C0.745876 12.9554 0.500021 12.4809 0.5 12L0.511719 11.8193C0.563918 11.3987 0.792533 10.9732 1.11816 10.4746C1.45872 9.95323 1.93883 9.31274 2.14648 8.64551C2.35983 7.95966 2.33867 7.14565 2.3584 6.50781C2.37999 5.80985 2.4469 5.28946 2.70117 4.9248C2.95601 4.55949 3.4044 4.33439 4.03027 4.09961C4.60017 3.88583 5.3586 3.65491 5.91895 3.22949C6.4729 2.8088 6.91299 2.13073 7.2832 1.63086C7.69232 1.07846 8.03937 0.701223 8.45117 0.561523C8.83751 0.430776 9.31017 0.519443 9.95508 0.714844C10.539 0.891774 11.2879 1.16797 12 1.16797C12.7121 1.1679 13.4612 0.891744 14.0449 0.714844Z" fill="#3C2C7F" stroke="#200B40"/>
<path d="M14.826 17.4095C14.9637 17.4702 15.1113 17.5 15.2584 17.5C15.4699 17.5 15.68 17.4381 15.8572 17.3175C16.1573 17.1128 16.3152 16.7713 16.2691 16.4258L15.8971 13.6342L17.9468 11.5806C18.2006 11.3265 18.2871 10.9631 18.1723 10.632C18.0576 10.3009 17.7602 10.0544 17.3957 9.98873L14.4508 9.4582L13.0029 6.99438C12.8237 6.68956 12.4821 6.5 12.1109 6.5C11.74 6.5 11.3981 6.68956 11.219 6.99438L9.77132 9.45795L6.82642 9.98873C6.46195 10.0544 6.16455 10.3009 6.04979 10.632C5.9353 10.9631 6.0215 11.3263 6.27499 11.5806L8.325 13.6339L7.95298 16.4258C7.90692 16.7713 8.06478 17.1128 8.36487 17.3173C8.66496 17.522 9.06015 17.5574 9.39607 17.4095L12.1112 16.2148L14.826 17.4095Z" fill="#F3B831"/>
</svg>
