<svg width="24" height="24" viewBox="0 0 24 24" fill="none" xmlns="http://www.w3.org/2000/svg">
<rect x="0.5" y="0.5" width="23" height="23" rx="11.5" fill="white"/>
<rect x="0.5" y="0.5" width="23" height="23" rx="11.5" stroke="#3C2C7F"/>
<path d="M8.24872 17.924V16.068L12.0087 12.164C12.7661 11.3853 13.1447 10.724 13.1447 10.18C13.1447 9.828 13.0381 9.54533 12.8247 9.332C12.6114 9.108 12.3181 8.996 11.9447 8.996C11.1981 8.996 10.6487 9.40133 10.2967 10.212L8.13672 8.948C8.47805 8.148 8.99005 7.54 9.67272 7.124C10.3554 6.708 11.1021 6.5 11.9127 6.5C12.9581 6.5 13.8487 6.82533 14.5847 7.476C15.3314 8.116 15.7047 8.98 15.7047 10.068C15.7047 11.252 15.1234 12.4253 13.9607 13.588L12.1047 15.46H15.8647V17.924H8.24872Z" fill="#3C2C7F"/>
</svg>
