<?xml version="1.0" encoding="utf-8"?>
<!-- Generator: Adobe Illustrator 27.8.0, SVG Export Plug-In . SVG Version: 6.00 Build 0)  -->
<svg version="1.1" id="Layer_1" xmlns="http://www.w3.org/2000/svg" xmlns:xlink="http://www.w3.org/1999/xlink" x="0px" y="0px"
	 viewBox="0 0 24 24" style="enable-background:new 0 0 24 24;" xml:space="preserve">
<style type="text/css">
	.st0{fill:#3C2C7F;stroke:#200B40;}
	.st1{fill:#D8D4FF;}
</style>
<path class="st0" d="M14,0.7c0.6-0.2,1.1-0.3,1.5-0.2c0.4,0.1,0.8,0.5,1.2,1.1c0.4,0.5,0.8,1.2,1.4,1.6h0c0.6,0.4,1.3,0.7,1.9,0.9
	c0.6,0.2,1.1,0.5,1.3,0.8c0.3,0.4,0.3,0.9,0.3,1.6c0,0.6,0,1.5,0.2,2.1c0.2,0.7,0.7,1.3,1,1.8c0.4,0.6,0.6,1,0.6,1.5s-0.2,1-0.6,1.5
	c-0.3,0.5-0.8,1.2-1,1.8c-0.2,0.7-0.2,1.5-0.2,2.1c0,0.7-0.1,1.2-0.3,1.6c-0.3,0.4-0.7,0.6-1.3,0.8c-0.6,0.2-1.3,0.4-1.9,0.9h0
	c-0.6,0.4-1,1.1-1.4,1.6c-0.4,0.6-0.8,0.9-1.2,1.1c-0.4,0.1-0.9,0-1.5-0.2c-0.6-0.2-1.3-0.5-2-0.5c-0.7,0-1.5,0.3-2,0.5
	c-0.6,0.2-1.1,0.3-1.5,0.2c-0.4-0.1-0.8-0.5-1.2-1.1c-0.4-0.5-0.8-1.2-1.4-1.6c-0.6-0.4-1.3-0.7-1.9-0.9c-0.5-0.2-1-0.4-1.2-0.7
	l-0.1-0.1c-0.3-0.4-0.3-0.9-0.3-1.6c0-0.6,0-1.5-0.2-2.1c-0.2-0.7-0.7-1.3-1-1.8c-0.4-0.6-0.6-1-0.6-1.5l0-0.2
	c0.1-0.4,0.3-0.8,0.6-1.3c0.3-0.5,0.8-1.2,1-1.8C2.4,8,2.3,7.1,2.4,6.5c0-0.7,0.1-1.2,0.3-1.6C3,4.6,3.4,4.3,4,4.1
	c0.6-0.2,1.3-0.4,1.9-0.9c0.6-0.4,1-1.1,1.4-1.6C7.7,1.1,8,0.7,8.5,0.6c0.4-0.1,0.9,0,1.5,0.2c0.6,0.2,1.3,0.5,2,0.5
	C12.7,1.2,13.5,0.9,14,0.7z"/>
<path class="st1" d="M16.4,13.5v2.4h-1.1v1.8h-2.6v-1.8H7.6v-2.4l3.6-7h2.8l-3.6,7h2.3v-2.4h2.6v2.4H16.4z"/>
</svg>
