<svg preserveAspectRatio="none" overflow="visible" style="display: block;" width="24" height="24" viewBox="0 0 24 24" fill="none" xmlns="http://www.w3.org/2000/svg">
<g id="checklist_rtl">
<mask id="mask0_0_225" style="mask-type:alpha" maskUnits="userSpaceOnUse" x="0" y="0" width="24" height="24">
<rect id="Bounding box" width="24" height="24" fill="#D9D9D9"/>
</mask>
<g mask="url(#mask0_0_225)">
<g id="Group 12739">
<path id="Vector (Stroke)" d="M20.4697 9.2193C20.7626 8.92641 21.2373 8.92641 21.5302 9.2193C21.8231 9.5122 21.8231 9.98696 21.5302 10.2799L20.0605 11.7496L21.5302 13.2193L21.582 13.2759C21.8223 13.5705 21.8048 14.0052 21.5302 14.2799C21.2556 14.5545 20.8209 14.5719 20.5263 14.3316L20.4697 14.2799L18.9999 12.8101L17.5302 14.2799C17.2373 14.5727 16.7626 14.5727 16.4697 14.2799C16.1768 13.987 16.1768 13.5122 16.4697 13.2193L17.9394 11.7496L16.4697 10.2799C16.1768 9.98696 16.1768 9.5122 16.4697 9.2193C16.7626 8.92641 17.2373 8.92641 17.5302 9.2193L18.9999 10.689L20.4697 9.2193Z" fill="#32323C"/>
</g>
<g id="Group 12738">
<path id="Vector 60 (Stroke)" d="M20.87 3.21957C21.1629 2.92687 21.6377 2.92674 21.9305 3.21957C22.2231 3.51242 22.2231 3.98728 21.9305 4.28012L18.4305 7.78012C18.1377 8.07295 17.6629 8.07282 17.37 7.78012L15.9696 6.37973C15.6769 6.08682 15.6767 5.61201 15.9696 5.31918C16.2624 5.02655 16.7373 5.02655 17.0301 5.31918L17.9002 6.1893L20.87 3.21957Z" fill="#32323C"/>
</g>
<g id="Group 12740">
<path id="Vector 60 (Stroke)_2" d="M20.87 16.2196C21.1629 15.9269 21.6377 15.9267 21.9305 16.2196C22.2231 16.5124 22.2231 16.9873 21.9305 17.2801L18.4305 20.7801C18.1377 21.0729 17.6629 21.0728 17.37 20.7801L15.9696 19.3797C15.6769 19.0868 15.6767 18.612 15.9696 18.3192C16.2624 18.0265 16.7373 18.0265 17.0301 18.3192L17.9002 19.1893L20.87 16.2196Z" fill="#32323C"/>
</g>
<rect id="Rectangle 4993" x="2" y="5" width="12" height="2" rx="1" fill="#32323C"/>
<rect id="Rectangle 4994" x="2" y="11" width="12" height="2" rx="1" fill="#32323C"/>
<rect id="Rectangle 4995" x="2" y="17" width="12" height="2" rx="1" fill="#32323C"/>
</g>
</g>
</svg>
