<svg preserveAspectRatio="none" overflow="visible" style="display: block;" width="16.666" height="18.3334" viewBox="0 0 16.666 18.3334" fill="none" xmlns="http://www.w3.org/2000/svg">
<g id="Topic - Mastered">
<path id="Subtract" d="M7.82227 0.132025C8.13997 -0.0440083 8.52604 -0.0440083 8.84375 0.132025L16.1348 4.20917C16.4629 4.39297 16.666 4.73713 16.666 5.11249V13.2199C16.666 13.5953 16.4629 13.9404 16.1348 14.1242L8.84375 18.2014C8.52604 18.3774 8.13997 18.3774 7.82227 18.2014L0.53125 14.1242C0.203125 13.9404 0 13.5953 0 13.2199V5.11249C0 4.73713 0.203125 4.39297 0.53125 4.20917L7.82227 0.132025ZM8.33301 4.1662C8.0296 4.1662 7.75012 4.32443 7.60352 4.57831L6.41895 6.63105L4.00879 7.07343C3.71081 7.12827 3.46794 7.33385 3.37402 7.60956C3.28035 7.88548 3.35022 8.18869 3.55762 8.40058L5.23535 10.1115L4.93066 12.4377C4.89298 12.7255 5.02217 13.0104 5.26758 13.1809C5.513 13.3514 5.83656 13.381 6.11133 13.258L8.33301 12.2619L10.5547 13.258C10.6672 13.3084 10.788 13.3332 10.9082 13.3332C11.0812 13.3332 11.2535 13.2813 11.3984 13.1809C11.6437 13.0102 11.773 12.7255 11.7354 12.4377L11.4307 10.1115L13.1074 8.40058C13.315 8.1889 13.3859 7.88548 13.292 7.60956C13.1981 7.33387 12.9552 7.1283 12.6572 7.07343L10.2471 6.63202L9.0625 4.57831C8.91594 4.3244 8.63663 4.16626 8.33301 4.1662Z" fill="white"/>
</g>
</svg>
