<?xml version="1.0" encoding="UTF-8"?><svg id="Layer_1" xmlns="http://www.w3.org/2000/svg" viewBox="0 0 24 24"><path d="M4.4,13.77c.1.4.23.79.39,1.18s.35.76.59,1.13c.13.23.19.48.17.74-.02.26-.12.48-.3.66s-.4.26-.65.24-.44-.14-.58-.34c-.37-.53-.67-1.1-.9-1.7-.23-.6-.42-1.22-.55-1.85-.05-.23,0-.45.16-.64.16-.19.36-.29.61-.29s.47.08.66.25c.19.17.32.38.39.62ZM5.38,7.93c-.23.35-.43.72-.59,1.11-.16.39-.29.79-.39,1.19-.07.27-.2.48-.39.64-.19.16-.41.24-.66.24s-.45-.1-.61-.29c-.16-.19-.21-.4-.16-.64.13-.63.32-1.25.55-1.84.23-.59.53-1.15.9-1.69.13-.22.33-.34.58-.36s.47.05.65.24c.18.18.29.4.31.66.02.26-.04.5-.19.74ZM7.93,18.62c.35.23.72.43,1.11.59s.79.29,1.19.39c.27.07.48.2.64.39.16.19.24.41.24.66s-.1.45-.29.61c-.19.16-.4.21-.64.16-.63-.13-1.25-.32-1.84-.55s-1.15-.53-1.69-.9c-.22-.13-.34-.33-.36-.58s.05-.47.24-.65c.18-.18.4-.29.66-.31.26-.02.5.04.74.19ZM10.23,4.4c-.4.1-.79.23-1.17.39-.38.16-.76.35-1.12.59-.23.13-.48.19-.74.18-.26-.02-.48-.12-.66-.3-.18-.18-.26-.4-.24-.65s.14-.44.34-.57c.53-.37,1.1-.67,1.7-.9.6-.23,1.22-.42,1.85-.55.23-.05.45,0,.64.16.19.16.29.36.29.61s-.08.47-.25.66c-.17.19-.38.32-.62.39ZM16.08,18.62c.23-.15.48-.21.74-.19.26.02.48.13.66.31.18.18.26.4.24.65-.03.25-.15.44-.36.58-.53.37-1.1.67-1.69.9-.59.23-1.2.42-1.84.55-.23.05-.45,0-.64-.16-.19-.16-.29-.36-.29-.61s.08-.47.24-.66c.16-.19.37-.32.64-.39.4-.1.8-.23,1.19-.39.39-.16.76-.35,1.11-.59ZM13.78,4.4c-.25-.07-.46-.2-.62-.39-.17-.19-.25-.41-.25-.66s.1-.45.29-.61c.19-.16.4-.21.64-.16.63.13,1.25.32,1.85.55.6.23,1.17.53,1.7.9.2.13.31.32.34.57.02.25-.05.47-.24.65-.18.18-.4.28-.66.3-.26.02-.5-.04-.74-.18-.37-.23-.74-.43-1.12-.59-.38-.16-.77-.29-1.18-.39ZM19.6,13.77c.07-.25.2-.46.39-.62.19-.17.41-.25.66-.25s.45.1.61.29c.16.19.21.4.16.64-.13.63-.32,1.25-.55,1.85-.23.6-.53,1.17-.9,1.7-.13.2-.32.31-.57.34s-.47-.05-.65-.24c-.18-.18-.28-.4-.3-.66-.02-.26.04-.5.17-.74.23-.37.43-.74.59-1.13.16-.38.29-.77.39-1.18ZM18.63,7.93c-.15-.23-.21-.48-.19-.74.03-.26.13-.48.31-.66.18-.18.4-.26.65-.24s.44.15.57.36c.37.53.67,1.1.9,1.69.23.59.42,1.2.55,1.84.05.23,0,.45-.16.64-.16.19-.36.29-.61.29s-.47-.08-.66-.24c-.19-.16-.32-.37-.39-.64-.1-.4-.23-.8-.39-1.19-.16-.39-.35-.76-.59-1.11Z"/><path d="M10.73,13.05l-1.5-1.48c-.18-.18-.39-.27-.62-.27s-.44.09-.62.27c-.18.18-.28.4-.28.64s.09.45.28.64l2.12,2.12c.18.18.39.27.62.27s.44-.09.62-.27l4.68-4.68c.18-.18.27-.4.27-.64s-.09-.45-.27-.64c-.18-.18-.39-.27-.62-.27s-.44.09-.62.27l-4.05,4.03Z"/></svg>