<?xml version="1.0" encoding="UTF-8"?><svg id="Layer_1" xmlns="http://www.w3.org/2000/svg" viewBox="0 0 24 24"><path d="M10.6,13.8l-2.15-2.15c-.18-.18-.42-.27-.7-.27s-.52.09-.7.27c-.18.18-.28.42-.28.7s.09.52.28.7l2.85,2.85c.2.2.43.3.7.3s.5-.1.7-.3l5.65-5.65c.18-.18.27-.42.27-.7s-.09-.52-.27-.7c-.18-.18-.42-.28-.7-.28s-.52.09-.7.28l-4.95,4.95ZM12,22c-1.38,0-2.68-.26-3.9-.79-1.22-.52-2.28-1.24-3.18-2.14-.9-.9-1.61-1.96-2.14-3.18-.52-1.22-.79-2.52-.79-3.9s.26-2.68.79-3.9c.52-1.22,1.24-2.28,2.14-3.18.9-.9,1.96-1.61,3.18-2.14,1.22-.52,2.52-.79,3.9-.79s2.68.26,3.9.79c1.22.53,2.27,1.24,3.18,2.14.9.9,1.61,1.96,2.14,3.18.52,1.22.79,2.52.79,3.9s-.26,2.68-.79,3.9c-.53,1.22-1.24,2.27-2.14,3.18-.9.9-1.96,1.61-3.18,2.14s-2.52.79-3.9.79Z"/></svg>