<?xml version="1.0" encoding="UTF-8"?><svg id="Layer_1" xmlns="http://www.w3.org/2000/svg" viewBox="0 0 24 24"><path d="M22.39,7l-2.23-1.54c-.53-2.77-2.97-4.86-5.89-4.86-2.52,0-4.67,1.56-5.56,3.76l-1.93-2.3c-.62.52-.88,1.34-.82,2.25L3.49,1.83l-.62.62c-1.45,1.45-1.17,4.05.59,6.05-.7,1.88-.27,4,1.17,5.43.75.75,1.69,1.23,2.71,1.42.04.29.12.57.21.84l-.85.23c-.66.18-1.15.67-1.33,1.33-.18.66,0,1.34.49,1.82l1.44,1.44c.36.36.83.55,1.32.55.16,0,.33-.02.5-.07.59-.16,1.03-.58,1.25-1.13v1.64c0,.55.45,1,1,1s1-.45,1-1v-2.42c.22,0,.42-.03.63-.06v2.48c0,.55.45,1,1,1s1-.45,1-1v-3.23c1.36-.89,2.27-2.43,2.27-4.18,0-.9-.26-1.74-.68-2.47,1.22-.51,2.23-1.42,2.89-2.55l2.21-.1-.65-1.52,1.36-.94ZM5.28,8.71l.3-.58-.47-.45s-.07-.06-.09-.08c-.67-.67-1.14-1.51-1.28-2.3-.03-.2-.06-.48-.02-.77l7.5,7.5c-.14.24-.32.47-.52.67-1.29,1.29-3.54,1.29-4.82,0-1.05-1.05-1.29-2.65-.59-3.98ZM8.57,19.44l-1.15-1.15,1.19-.32c.09.1.18.19.28.28l-.32,1.19ZM15.27,14.59c0,1.65-1.35,3-3,3-1.4,0-2.57-.97-2.9-2.27.96-.21,1.85-.68,2.56-1.39.43-.43.76-.94,1.01-1.49.43.1.87.15,1.33.15.07,0,.14-.01.21-.01.49.53.79,1.24.79,2.01ZM14.27,10.59c-2.21,0-4-1.79-4-4s1.79-4,4-4,4,1.79,4,4-1.79,4-4,4Z"/><path d="M14.28,4.87c-.5,0-.91.49-.91,1.11,0,.62.39,1.13.89,1.14.5,0,.91-.49.91-1.11,0-.62-.39-1.13-.89-1.14Z"/></svg>