<?xml version="1.0" encoding="UTF-8"?>
<svg id="Layer_1" data-name="Layer 1" xmlns="http://www.w3.org/2000/svg" viewBox="0 0 24 24">
  <defs>
    <style>
      .cls-1 {
        fill-rule: evenodd;
      }
    </style>
  </defs>
  <path class="cls-1" d="M12.35,6.01c.45.06.89.29,1.17.69l.06.09.71,1.18,1.48.26c.52.09,1.01.43,1.24.95l.04.11.04.11c.15.56-.02,1.15-.43,1.54l-.98.95.17,1.28c.09.63-.22,1.21-.71,1.54h0c-.29.19-.62.28-.94.28-.23,0-.46-.05-.68-.14l-1.38-.59-1.38.59c-.52.22-1.14.17-1.62-.14-.49-.33-.8-.91-.71-1.54l.17-1.28-.98-.95c-.43-.42-.6-1.06-.39-1.66l.04-.11c.23-.52.71-.86,1.24-.95l1.48-.26.71-1.18.06-.09c.32-.46.85-.7,1.38-.7h.21ZM11.23,9.79l-1.64.29.77.75.36.35-.07.5-.15,1.12,1.64-.7,1.64.7-.22-1.62,1.13-1.1-1.64-.29-.91-1.51-.91,1.51Z"/>
  <path class="cls-1" d="M13.06,1.21c.43-.13,1.16-.34,1.89-.1.74.25,1.2.86,1.48,1.23.35.48.5.71.7.86.19.15.45.22,1,.43.41.15,1.05.4,1.49.96l.09.12.08.12c.36.6.39,1.29.41,1.73.02.59,0,.9.09,1.15.07.24.24.46.57.96.26.4.66,1.04.66,1.82v.14c-.05.71-.41,1.3-.66,1.68-.33.5-.5.72-.57.96-.08.26-.07.56-.09,1.15-.01.47-.05,1.23-.49,1.85-.12.17-.26.32-.41.44l1.97,3h0s0,.01,0,.01c.6.95-.04,2.09-1.04,2.24l-1.64.25-1.07,1.25c-.64.75-1.86.69-2.4-.16l-2.39-3.63c-.29-.09-.47-.14-.64-.16h-.09c-.19,0-.39.06-.74.16l-2.38,3.63h0c-.55.84-1.76.91-2.4.16l-1.07-1.25-1.64-.25c-1-.15-1.65-1.29-1.04-2.24h0s1.97-3.02,1.97-3.02c-.15-.12-.29-.27-.41-.44-.44-.63-.47-1.38-.49-1.85-.02-.59,0-.9-.09-1.15-.07-.24-.24-.46-.57-.96-.25-.38-.61-.96-.65-1.68v-.14c0-.78.39-1.42.65-1.82.33-.5.5-.72.57-.96.08-.26.07-.56.09-1.15.01-.47.05-1.23.49-1.85.45-.64,1.14-.91,1.58-1.08.55-.2.8-.28,1-.43.19-.15.34-.38.7-.86.28-.37.74-.98,1.48-1.23.73-.25,1.47-.03,1.89.1.55.17.81.26,1.06.26h.09c.22-.03.48-.12.96-.26ZM4.87,20.13l1.02.15c.35.05.68.23.92.51l.76.89,1.24-1.89c-.6-.29-.99-.8-1.24-1.13-.35-.48-.5-.71-.7-.86-.09-.07-.2-.12-.35-.18l-1.66,2.52ZM17.47,17.61c-.15.06-.25.11-.35.18-.19.15-.34.38-.7.86-.25.33-.64.85-1.24,1.13l1.24,1.89.76-.89.09-.1c.23-.22.52-.36.83-.41l1.02-.15-1.66-2.52ZM14.31,3.01c-.05-.02-.2-.03-.67.12-.35.11-1.01.35-1.64.35-.63,0-1.29-.24-1.64-.35-.47-.14-.62-.13-.67-.12-.08.03-.22.13-.52.53-.22.29-.61.89-1.09,1.26-.49.38-1.16.58-1.5.71-.45.17-.58.27-.64.35-.06.08-.11.27-.13.77-.01.39,0,1.09-.18,1.69-.18.58-.61,1.15-.81,1.46-.26.4-.33.6-.33.73v.11c.05.13.13.31.33.61.2.31.62.87.81,1.46.18.59.17,1.3.18,1.69.02.51.07.69.13.77.05.08.19.18.64.35.34.13,1.01.33,1.5.71.49.37.88.97,1.09,1.26.3.4.44.5.52.53h.06c.09.01.26,0,.61-.12.35-.11,1.01-.35,1.64-.35.63,0,1.29.24,1.64.35.47.14.62.13.67.12.08-.03.22-.13.52-.53.22-.29.61-.89,1.09-1.26.49-.38,1.16-.58,1.5-.71.45-.17.59-.27.64-.35.06-.08.11-.27.13-.77.01-.39,0-1.09.18-1.69.18-.58.6-1.15.8-1.46.26-.4.33-.6.33-.73s-.07-.32-.33-.73c-.2-.31-.62-.87-.8-1.46-.18-.59-.17-1.3-.18-1.69-.02-.5-.07-.69-.13-.77l-.06-.06c-.08-.07-.24-.16-.58-.29-.34-.13-1.01-.33-1.5-.71-.49-.37-.88-.97-1.09-1.26-.3-.4-.44-.5-.52-.53Z"/>
</svg>