<?xml version="1.0" encoding="UTF-8"?><svg id="Layer_1" xmlns="http://www.w3.org/2000/svg" viewBox="0 0 24 24"><path d="M10.9,15l-1.62,7.2c-.05.23-.17.42-.36.57-.19.15-.41.23-.66.23-.33,0-.6-.12-.8-.38-.2-.25-.27-.53-.2-.85l2.82-14.32c.1-.48.32-.85.68-1.09.35-.24.72-.36,1.1-.36s.74.08,1.06.25c.33.17.59.42.79.75l1,1.6c.3.48.69.92,1.16,1.31.48.39,1.02.68,1.64.86v-1.02c0-.22.07-.4.21-.54.14-.14.32-.21.54-.21s.4.07.54.21c.14.14.21.32.21.54v12.5c0,.22-.07.4-.21.54s-.32.21-.54.21-.4-.07-.54-.21-.21-.32-.21-.54v-9.4c-.8-.18-1.54-.48-2.22-.88-.68-.4-1.27-.89-1.77-1.48l-.6,3,1.8,1.7c.1.1.18.21.23.34.05.12.07.25.07.39v6.07c0,.28-.1.52-.29.71s-.43.29-.71.29-.52-.1-.71-.29-.29-.43-.29-.71v-5l-2.1-2ZM6.45,12.95l-1.15-.22c-.27-.05-.47-.19-.62-.41-.15-.23-.2-.48-.15-.76l.75-3.93c.1-.57.4-1,.9-1.29.5-.29,1.04-.38,1.62-.26.28.05.5.19.64.41.14.22.19.48.14.76l-.95,4.9c-.05.28-.19.5-.41.65-.23.15-.48.2-.76.15ZM13.5,5.5c-.55,0-1.02-.2-1.41-.59-.39-.39-.59-.86-.59-1.41s.2-1.02.59-1.41c.39-.39.86-.59,1.41-.59s1.02.2,1.41.59c.39.39.59.86.59,1.41s-.2,1.02-.59,1.41c-.39.39-.86.59-1.41.59Z"/></svg>