<svg preserveAspectRatio="none" overflow="visible" style="display: block;" width="20" height="20" viewBox="0 0 20 20" fill="none" xmlns="http://www.w3.org/2000/svg">
<g id="fiber_new">
<mask id="mask0_0_194" style="mask-type:alpha" maskUnits="userSpaceOnUse" x="0" y="0" width="20" height="20">
<rect id="Bounding box" width="20" height="20" fill="#D9D9D9"/>
</mask>
<g mask="url(#mask0_0_194)">
<path id="fiber_new_2" d="M2.5 16.6667C2.04167 16.6667 1.64931 16.5035 1.32292 16.1771C0.996528 15.8507 0.833333 15.4583 0.833333 15V5C0.833333 4.54167 0.996528 4.14931 1.32292 3.82292C1.64931 3.49653 2.04167 3.33333 2.5 3.33333H17.5C17.9583 3.33333 18.3507 3.49653 18.6771 3.82292C19.0035 4.14931 19.1667 4.54167 19.1667 5V15C19.1667 15.4583 19.0035 15.8507 18.6771 16.1771C18.3507 16.5035 17.9583 16.6667 17.5 16.6667H2.5ZM3.95833 9.58333L5.9375 12.2917C5.97917 12.3611 6.03472 12.4132 6.10417 12.4479C6.17361 12.4826 6.25 12.5 6.33333 12.5H6.58333C6.72222 12.5 6.84028 12.4514 6.9375 12.3542C7.03472 12.2569 7.08333 12.1389 7.08333 12V8.02083C7.08333 7.86806 7.03472 7.74306 6.9375 7.64583C6.84028 7.54861 6.71528 7.5 6.5625 7.5C6.40972 7.5 6.28472 7.54861 6.1875 7.64583C6.09028 7.74306 6.04167 7.86806 6.04167 8.02083V10.4167L4.10417 7.70833C4.04861 7.63889 3.98611 7.58681 3.91667 7.55208C3.84722 7.51736 3.77083 7.5 3.6875 7.5H3.4375C3.28472 7.5 3.15972 7.54861 3.0625 7.64583C2.96528 7.74306 2.91667 7.86806 2.91667 8.02083V11.9792C2.91667 12.1319 2.96528 12.2569 3.0625 12.3542C3.15972 12.4514 3.28472 12.5 3.4375 12.5C3.59028 12.5 3.71528 12.4514 3.8125 12.3542C3.90972 12.2569 3.95833 12.1319 3.95833 11.9792V9.58333ZM8.33333 12.5H10.7292C10.8819 12.5 11.0069 12.4514 11.1042 12.3542C11.2014 12.2569 11.25 12.1319 11.25 11.9792C11.25 11.8264 11.2014 11.7014 11.1042 11.6042C11.0069 11.5069 10.8819 11.4583 10.7292 11.4583H9.16667V10.5417H10.7292C10.8819 10.5417 11.0069 10.4931 11.1042 10.3958C11.2014 10.2986 11.25 10.1736 11.25 10.0208C11.25 9.86806 11.2014 9.74306 11.1042 9.64583C11.0069 9.54861 10.8819 9.5 10.7292 9.5H9.16667V8.54167H10.7292C10.8819 8.54167 11.0069 8.49306 11.1042 8.39583C11.2014 8.29861 11.25 8.17361 11.25 8.02083C11.25 7.86806 11.2014 7.74306 11.1042 7.64583C11.0069 7.54861 10.8819 7.5 10.7292 7.5H8.33333C8.22222 7.5 8.125 7.54167 8.04167 7.625C7.95833 7.70833 7.91667 7.80556 7.91667 7.91667V12.0833C7.91667 12.1944 7.95833 12.2917 8.04167 12.375C8.125 12.4583 8.22222 12.5 8.33333 12.5ZM12.9167 12.5H16.25C16.4861 12.5 16.684 12.4201 16.8438 12.2604C17.0035 12.1007 17.0833 11.9028 17.0833 11.6667V8.02083C17.0833 7.86806 17.0347 7.74306 16.9375 7.64583C16.8403 7.54861 16.7153 7.5 16.5625 7.5C16.4097 7.5 16.2847 7.54861 16.1875 7.64583C16.0903 7.74306 16.0417 7.86806 16.0417 8.02083V11.25H15.125V8.85417C15.125 8.70139 15.0764 8.57639 14.9792 8.47917C14.8819 8.38194 14.7569 8.33333 14.6042 8.33333C14.4514 8.33333 14.3264 8.38194 14.2292 8.47917C14.1319 8.57639 14.0833 8.70139 14.0833 8.85417V11.25H13.125V8.02083C13.125 7.86806 13.0764 7.74306 12.9792 7.64583C12.8819 7.54861 12.7569 7.5 12.6042 7.5C12.4514 7.5 12.3264 7.54861 12.2292 7.64583C12.1319 7.74306 12.0833 7.86806 12.0833 8.02083V11.6667C12.0833 11.9028 12.1632 12.1007 12.3229 12.2604C12.4826 12.4201 12.6806 12.5 12.9167 12.5Z" fill="#1C1B1F"/>
</g>
</g>
</svg>
