<svg width="24" height="24" viewBox="0 0 24 24" fill="none" xmlns="http://www.w3.org/2000/svg">
<rect x="0.5" y="0.5" width="23" height="23" rx="11.5" fill="#D8D4FF"/>
<rect x="0.5" y="0.5" width="23" height="23" rx="11.5" stroke="#3C2C7F"/>
<path d="M13.616 11.044C14.3307 11.2893 14.9067 11.6893 15.344 12.244C15.7813 12.788 16 13.4333 16 14.18C16 15.3533 15.6053 16.2707 14.816 16.932C14.0267 17.5933 13.0613 17.924 11.92 17.924C11.0347 17.924 10.24 17.7213 9.536 17.316C8.84267 16.9107 8.33067 16.3133 8 15.524L10.208 14.244C10.4853 15.0333 11.056 15.428 11.92 15.428C12.4213 15.428 12.8 15.3107 13.056 15.076C13.312 14.8413 13.44 14.5427 13.44 14.18C13.44 13.8173 13.312 13.5187 13.056 13.284C12.8 13.0493 12.4213 12.932 11.92 12.932H11.392L10.416 11.476L12.448 8.9H8.352V6.5H15.552V8.58L13.616 11.044Z" fill="#3C2C7F"/>
</svg>
