<svg width="24" height="24" viewBox="0 0 24 24" fill="none" xmlns="http://www.w3.org/2000/svg">
<rect width="24" height="24" rx="12" fill="#DFDFE5"/>
<mask id="mask0_832_25337" style="mask-type:alpha" maskUnits="userSpaceOnUse" x="5" y="11" width="14" height="2">
<mask id="mask1_832_25337" style="mask-type:alpha" maskUnits="userSpaceOnUse" x="0" y="0" width="24" height="24">
<rect width="24" height="24" fill="#D9D9D9"/>
</mask>
<g mask="url(#mask1_832_25337)">
<path d="M6 13C5.71667 13 5.47917 12.9042 5.2875 12.7125C5.09583 12.5208 5 12.2833 5 12C5 11.7167 5.09583 11.4792 5.2875 11.2875C5.47917 11.0958 5.71667 11 6 11H18C18.2833 11 18.5208 11.0958 18.7125 11.2875C18.9042 11.4792 19 11.7167 19 12C19 12.2833 18.9042 12.5208 18.7125 12.7125C18.5208 12.9042 18.2833 13 18 13H6Z" fill="#1C1B1F"/>
</g>
</mask>
<g mask="url(#mask0_832_25337)">
<rect width="24" height="24" fill="#3E3E4C" fill-opacity="0.4"/>
</g>
</svg>
