<svg preserveAspectRatio="none" overflow="visible" style="display: block;" width="21.7856" height="21.7841" viewBox="0 0 21.7856 21.7841" fill="none" xmlns="http://www.w3.org/2000/svg">
<g id="Stickers-new">
<path id="Vector" d="M6.17093 7.11404L11.5469 4.82204L20.2649 8.33204C21.2129 8.71604 21.6749 9.79604 21.2909 10.744L17.3429 20.554C16.9589 21.502 15.8789 21.964 14.9309 21.58L4.10093 17.224C3.15293 16.84 2.69093 15.76 3.07493 14.812L6.17093 7.11404Z" fill="#FFCC00"/>
<path id="Vector_2" d="M4.08293 6.64004L8.87093 3.29204L18.1289 4.92404C19.1369 5.10404 19.8089 6.06404 19.6349 7.07204L17.7989 17.482C17.6189 18.49 16.6589 19.162 15.6509 18.988L4.15493 16.96C3.14693 16.78 2.47493 15.82 2.64893 14.812L4.08893 6.64004H4.08293Z" fill="#FF66B3"/>
<path id="Vector_3" d="M18.0269 11.788L13.8989 15.916H4.49693C3.47093 15.916 2.64293 15.088 2.64293 14.062V3.49004C2.64293 2.46404 3.47093 1.63604 4.49693 1.63604H16.1729C17.1989 1.63604 18.0269 2.46404 18.0269 3.49004V11.788Z" fill="#7F4AFF"/>
<path id="Vector_4" d="M13.8989 15.916V13.642C13.8989 12.616 14.7269 11.788 15.7529 11.788H18.0269L13.8989 15.916Z" fill="#42168A"/>
<path id="Vector_5" d="M12.8729 4.01804C12.8729 4.01804 12.2009 3.41204 11.3849 3.76004" stroke="#FFF200" stroke-miterlimit="10" stroke-linecap="round"/>
<path id="Vector_6" d="M5.25293 6.97604C5.25293 6.97604 5.36093 6.07604 6.20093 5.80004" stroke="#FFF200" stroke-miterlimit="10" stroke-linecap="round"/>
<path id="Vector_7" d="M13.4549 5.93204C13.4129 5.78204 13.3469 5.64404 13.2509 5.51804C13.0349 5.23004 12.7529 5.06204 12.3989 5.01404C12.0449 4.96604 11.7269 5.05004 11.4449 5.26604C11.1269 5.50604 10.9529 5.82404 10.9289 6.22004C10.9049 6.61604 11.0369 6.95804 11.3249 7.24604L13.5329 6.38804C13.5209 6.23204 13.4969 6.08204 13.4609 5.93204H13.4549Z" fill="#FFF200"/>
<path id="Vector_8" d="M8.42693 7.84004C8.38493 7.69004 8.31893 7.55204 8.22293 7.42604C8.00693 7.13804 7.72493 6.97004 7.37093 6.92204C7.01693 6.87404 6.69893 6.95804 6.41693 7.17404C6.09893 7.41404 5.91893 7.73804 5.88893 8.14004C5.85893 8.54204 5.99093 8.87804 6.29093 9.15404L8.49893 8.29604C8.48693 8.14004 8.46293 7.99004 8.42693 7.84004Z" fill="#FFF200"/>
<path id="Vector_9" d="M7.19093 10.246C6.78293 10.402 6.60293 10.858 6.82493 11.182C7.77293 12.58 9.72893 13.144 11.5469 12.448C13.3649 11.752 14.4389 10.012 14.2049 8.34404C14.1509 7.95404 13.7129 7.73804 13.3049 7.89404L7.18493 10.246H7.19093Z" fill="#FFF200"/>
<path id="Vector_10" d="M1.04693 4.25204C1.3783 4.25204 1.64693 3.98341 1.64693 3.65204C1.64693 3.32067 1.3783 3.05204 1.04693 3.05204C0.715555 3.05204 0.446926 3.32067 0.446926 3.65204C0.446926 3.98341 0.715555 4.25204 1.04693 4.25204Z" fill="#00FF99"/>
<path id="Vector_11" d="M21.7289 3.10604L21.0029 1.85204C20.8409 1.57004 20.4269 1.57004 20.2649 1.85204L19.5389 3.10604C19.3769 3.38804 19.5809 3.74804 19.9109 3.74804H21.3569C21.6869 3.74804 21.8909 3.39404 21.7289 3.10604Z" fill="#00FF99"/>
<path id="Vector_12" d="M2.21093 1.77404L1.95893 0.352041C1.89893 0.0280407 1.51493 -0.109959 1.26293 0.100041L0.152926 1.03004C-0.0990743 1.24004 -0.0270743 1.64804 0.278926 1.75604L1.64093 2.24804C1.94693 2.36204 2.26493 2.09804 2.20493 1.77404H2.21093Z" fill="#FFCC00"/>
<path id="Vector_13" d="M20.8289 21.784C21.1603 21.784 21.4289 21.5154 21.4289 21.184C21.4289 20.8527 21.1603 20.584 20.8289 20.584C20.4976 20.584 20.2289 20.8527 20.2289 21.184C20.2289 21.5154 20.4976 21.784 20.8289 21.784Z" fill="#BE8DFF"/>
<path id="Vector_14" d="M2.14493 21.508C2.4763 21.508 2.74493 21.2394 2.74493 20.908C2.74493 20.5767 2.4763 20.308 2.14493 20.308C1.81355 20.308 1.54493 20.5767 1.54493 20.908C1.54493 21.2394 1.81355 21.508 2.14493 21.508Z" fill="#FF66B3"/>
<path id="Vector_15" d="M2.59493 18.538L1.48493 17.614C1.23293 17.404 0.848926 17.548 0.788926 17.872L0.542926 19.3C0.488926 19.624 0.800926 19.888 1.11293 19.774L2.46893 19.27C2.77493 19.156 2.84693 18.754 2.59493 18.538Z" fill="#BE8DFF"/>
</g>
</svg>
