<svg width="16" height="16" viewBox="0 0 16 16" fill="none" xmlns="http://www.w3.org/2000/svg">
<g clip-path="url(#clip0_871_18346)">
<rect width="16" height="16" rx="8" fill="#754800"/>
<rect x="8" y="3" width="7" height="7" transform="rotate(45 8 3)" fill="#F8D580"/>
<path d="M15 8C15 4.13401 11.866 1 8 1C4.13401 1 1 4.13401 1 8C1 11.866 4.13401 15 8 15V16C3.58172 16 0 12.4183 0 8C0 3.58172 3.58172 0 8 0C12.4183 0 16 3.58172 16 8C16 12.4183 12.4183 16 8 16V15C11.866 15 15 11.866 15 8Z" fill="#F8D580"/>
</g>
<defs>
<clipPath id="clip0_871_18346">
<rect width="16" height="16" rx="8" fill="white"/>
</clipPath>
</defs>
</svg>
