<svg width="16" height="16" viewBox="0 0 16 16" fill="none" xmlns="http://www.w3.org/2000/svg">
<g clip-path="url(#clip0_871_18343)">
<rect width="16" height="16" rx="8" fill="#913A00"/>
<path d="M8 3L9.33939 4.76642L11.5355 4.46447L11.2336 6.66061L13 8L11.2336 9.33939L11.5355 11.5355L9.33939 11.2336L8 13L6.66061 11.2336L4.46447 11.5355L4.76642 9.33939L3 8L4.76642 6.66061L4.46447 4.46447L6.66061 4.76642L8 3Z" fill="#FCBE94"/>
<path d="M15 8C15 4.13401 11.866 1 8 1C4.13401 1 1 4.13401 1 8C1 11.866 4.13401 15 8 15V16C3.58172 16 0 12.4183 0 8C0 3.58172 3.58172 0 8 0C12.4183 0 16 3.58172 16 8C16 12.4183 12.4183 16 8 16V15C11.866 15 15 11.866 15 8Z" fill="#FCBE94"/>
</g>
<defs>
<clipPath id="clip0_871_18343">
<rect width="16" height="16" rx="8" fill="white"/>
</clipPath>
</defs>
</svg>
